# xmcd
#
# Track frame offsets:
#	150
#	34319
#	52192
#	76556
#	93043
#	147544
#	181737
#	199832
#	224180
#	240666
#
# Disc length: 3935 seconds
#
# Revision: 1
# Processed by: cddbd v1.4PL0 Copyright (c) Steve Scherf et al.
# Submitted via: EasyCDDAExtractor 5.0.6
#
DISCID=8d0f5d0a
DTITLE=佛教慈濟基金會 - 生生世世都在菩提中
DYEAR=2001
DGENRE=
TTITLE0=生生世世都在菩提中
TTITLE1=慈悲喜捨
TTITLE2=慈濟就是他的名
TTITLE3=依然只牽你的手
TTITLE4=祈禱
TTITLE5=生生世世都在菩提中-演奏曲
TTITLE6=慈悲喜捨-演奏曲
TTITLE7=慈濟就是他的名-演奏曲
TTITLE8=依然只牽你的手-演奏曲
TTITLE9=祈禱-演奏曲
EXTD=
EXTT0=
EXTT1=
EXTT2=
EXTT3=
EXTT4=
EXTT5=
EXTT6=
EXTT7=
EXTT8=
EXTT9=
PLAYORDER=
